:version 1.10
:name ASF
:units
  mass 1
  length 1
  angle deg
:documentation
  ASF file generated by Kaydara
:root
  axis xyz
  order  tx ty tz rx ry rz
  position 0 0 0
  orientation 0 0 0
:bonedata
  begin
    id 1
    name RightUpLegDummy
    direction -1 2.30186e-007 8.31532e-007
    length 4.46685
    axis 0 0 0 xyz
  end
  begin
    id 2
    name RightUpLeg
    direction -2.30187e-007 -1 1.24343e-010
    length 16.4045
    axis -3.49089 -0.000906625 0.000286804 xyz
    dof rx ry rz
  end
  begin
    id 3
    name RightLeg
    direction -2.30181e-007 -1 -4.17157e-009
    length 17.5097
    axis 3.68512 0.0193738 -0.131023 xyz
    dof rx ry rz
  end
  begin
    id 4
    name RightFoot
    direction 8.31421e-007 -4.51202e-011 1
    length 6.49508
    axis 4.81691e-005 -0.120479 -0.188788 xyz
    dof rx ry rz
  end
  begin
    id 5
    name RightToes
    direction 0.00124746 -0.014064 0.9999
    length 3.85082
    axis 0.000481921 0.542163 -0.142578 xyz
    dof rx ry rz
  end
  begin
    id 6
    name SpineDummy
    direction 0.0717043 0.9409 -0.331007
    length 10.0032
    axis 0 0 0 xyz
  end
  begin
    id 7
    name Spine
    direction 2.30186e-007 1 4.58806e-011
    length 9.84055
    axis -0.001389 0.000121418 2.40972e-006 xyz
    dof rx ry rz
  end
  begin
    id 8
    name Spine1
    direction 0 0 0
    length 0
    axis -0.001389 0.000121451 1.30017e-006 xyz
    dof rx ry rz
  end
  begin
    id 9
    name HEadDummy
    direction -0.00347485 0.950688 -0.310128
    length 8.00997
    axis -0.001389 0.000121451 1.30017e-006 xyz
  end
  begin
    id 10
    name HEad
    direction -0.0222688 0.980941 0.193023
    length 5.12695
    axis -0.001389 0.000121451 1.30017e-006 xyz
    dof rx ry rz
  end
  begin
    id 11
    name LeftShoulder1Dummy
    direction 0.988871 0.146793 -0.0242004
    length 3.5792
    axis -0.001389 0.000121451 1.30017e-006 xyz
  end
  begin
    id 12
    name LeftShoulder1
    direction 0.993832 0.108932 0.020779
    length 4.16823
    axis -0.001389 0.000121451 1.30017e-006 xyz
    dof rx ry rz
  end
  begin
    id 13
    name LeftArm
    direction 1 3.44807e-006 -8.31404e-007
    length 9.91437
    axis -23.1894 0.134784 0.967509 xyz
    dof rx ry rz
  end
  begin
    id 14
    name LeftForeArm
    direction 1 3.44842e-006 -8.31581e-007
    length 9.08575
    axis -9.91835 -0.06569 -0.177793 xyz
    dof rx ry rz
  end
  begin
    id 15
    name LeftHand
    direction 0.992938 -0.0411636 0.11126
    length 5.32135
    axis -0.00960232 -0.00340091 0.185173 xyz
    dof rx ry rz
  end
  begin
    id 16
    name RightShoulderDummy
    direction -0.988871 0.146793 -0.0241962
    length 3.5792
    axis -0.001389 0.000121451 1.30017e-006 xyz
  end
  begin
    id 17
    name RightShoulder
    direction -0.993832 0.108933 0.0207785
    length 4.16823
    axis 0.215806 0.000203643 -0.0068026 xyz
    dof rx ry rz
  end
  begin
    id 18
    name RightArm
    direction -1 3.90912e-006 8.31284e-007
    length 9.91437
    axis -23.2009 -0.134239 -0.964101 xyz
    dof rx ry rz
  end
  begin
    id 19
    name RightForeArm
    direction -1 3.90882e-006 8.31502e-007
    length 9.08575
    axis -9.92322 0.0658061 0.178867 xyz
    dof rx ry rz
  end
  begin
    id 20
    name RightHand
    direction -0.992843 -0.0414603 0.112003
    length 5.28593
    axis -0.00960638 0.00330671 -0.185228 xyz
    dof rx ry rz
  end
  begin
    id 21
    name LeftUpLegDummy
    direction 1 -2.30186e-007 -8.31532e-007
    length 4.46685
    axis 0 0 0 xyz
  end
  begin
    id 22
    name LeftUpLeg
    direction -2.30187e-007 -1 6.00931e-010
    length 16.4045
    axis -3.48766 0.00143442 -0.000524262 xyz
    dof rx ry rz
  end
  begin
    id 23
    name LeftLeg
    direction -2.30187e-007 -1 1.6669e-009
    length 17.5097
    axis 3.68178 -0.00654042 -0.000285133 xyz
    dof rx ry rz
  end
  begin
    id 24
    name LeftFoot
    direction 8.31532e-007 -4.54478e-011 1
    length 6.49508
    axis 1.87233e-006 4.66016e-005 -8.6538e-006 xyz
    dof rx ry rz
  end
  begin
    id 25
    name LeftToes
    direction 0.00818058 -0.00485161 0.999955
    length 3.85048
    axis 1.06247e-005 4.65869e-005 -8.65513e-006 xyz
    dof rx ry rz
  end
:hierarchy
  begin
    root RightUpLegDummy SpineDummy LeftUpLegDummy
    RightUpLegDummy RightUpLeg
    RightUpLeg RightLeg
    RightLeg RightFoot
    RightFoot RightToes
    SpineDummy Spine
    Spine Spine1
    Spine1 HEadDummy LeftShoulder1Dummy RightShoulderDummy
    HEadDummy HEad
    LeftShoulder1Dummy LeftShoulder1
    LeftShoulder1 LeftArm
    LeftArm LeftForeArm
    LeftForeArm LeftHand
    RightShoulderDummy RightShoulder
    RightShoulder RightArm
    RightArm RightForeArm
    RightForeArm RightHand
    LeftUpLegDummy LeftUpLeg
    LeftUpLeg LeftLeg
    LeftLeg LeftFoot
    LeftFoot LeftToes
  end

:SAMPLES-PER-SECOND 30
:FULLY-SPECIFIED
:DEGREES
106
root  -6.97847 47.5678 3.22924 4.09691 -37.6975 -1.19771
RightUpLeg  4.96874 2.40465 0.160091
RightLeg  12.6602 6.82522 1.07733
RightFoot  45.2694 -1.83311 4.77194
RightToes  -42.8296 -0.241472 -0.330542
Spine  -3.22605 -5.66999 -4.70913
Spine1  -5.76295 -11.8636 -10.3021
HEad  -32.6872 -39.8545 19.6656
LeftShoulder1  0 -2.42657e-020 -4.95415e-022
LeftArm  120.23 -63.8243 147.552
LeftForeArm  14.8646 -62.1593 -19.5713
LeftHand  -0.0443974 -2.09541 2.06422
RightShoulder  0 2.42657e-020 1.07489e-018
RightArm  -104.107 44.5667 -24.1336
RightForeArm  142.755 79.1902 67.333
RightHand  -3.79991 4.39609 -81.3867
LeftUpLeg  3.90854 6.70837 3.57811
LeftLeg  7.05525 -5.85316 -0.345227
LeftFoot  31.9745 0.913333 -3.1871
LeftToes  1.22559 1.28829e-006 1.15665e-007
107
root  -7.90706 48.8745 3.51533 3.38181 -36.6787 -1.56897
RightUpLeg  4.97338 3.17835 0.352481
RightLeg  16.0043 11.6866 2.53611
RightFoot  46.2622 -3.5334 8.63719
RightToes  -45.6508 -0.265124 -0.344767
Spine  -3.32105 -5.63903 -4.94078
Spine1  -5.95402 -11.8282 -9.93319
HEad  -32.7701 -39.4184 17.9848
LeftShoulder1  0 -2.42657e-020 -4.95415e-022
LeftArm  121.379 -62.8528 147.833
LeftForeArm  10.8178 -58.4249 -16.7119
LeftHand  -0.0464683 -1.87171 2.48334
RightShoulder  0 2.42657e-020 1.07489e-018
RightArm  -103.927 46.277 -22.5935
RightForeArm  140.634 78.6815 61.515
RightHand  -2.58495 2.82255 -84.729
LeftUpLeg  6.22516 2.76151 2.47537
LeftLeg  9.14081 -1.1375 -0.109756
LeftFoot  31.5174 0.189164 -0.670337
LeftToes  1.02816 1.28829e-006 1.15665e-007
108
root  -8.73507 49.7081 3.78703 3.59442 -36.423 -2.28691
RightUpLeg  4.70897 4.05554 0.281319
RightLeg  17.1582 13.1589 3.12561
RightFoot  45.1976 -3.87026 9.65882
RightToes  -46.9027 -0.275837 -0.350703
Spine  -3.5996 -5.58323 -4.60686
Spine1  -6.54182 -11.7244 -9.27131
HEad  -32.8822 -38.1698 16.8548
LeftShoulder1  0 -2.42657e-020 -4.95415e-022
LeftArm  123.144 -61.6395 146.595
LeftForeArm  10.174 -53.1751 -13.6403
LeftHand  -0.0118762 -2.45075 0.185807
RightShoulder  0 2.42657e-020 1.07489e-018
RightArm  -103.291 47.4743 -19.7698
RightForeArm  135.519 78.1169 56.7059
RightHand  -2.24605 2.42929 -85.2943
LeftUpLeg  7.29179 6.58928 2.78026
LeftLeg  11.0459 -3.94566 -0.510799
LeftFoot  30.7381 0.580538 -2.11187
LeftToes  2.45588 1.28829e-006 1.15665e-007
109
root  -9.48842 50.1103 3.96662 3.66046 -35.5956 -2.85449
RightUpLeg  4.6942 3.79947 -0.168754
RightLeg  17.3253 13.1451 3.16241
RightFoot  41.6092 -3.2775 8.9895
RightToes  -46.4673 -0.272097 -0.351632
Spine  -3.8728 -5.77081 -4.1047
Spine1  -7.07166 -12.1856 -8.33112
HEad  -33.2722 -37.7673 16.3709
LeftShoulder1  0 -2.42657e-020 -4.95415e-022
LeftArm  125.551 -60.8674 145.097
LeftForeArm  7.21262 -47.2779 -11.0091
LeftHand  -0.000878565 -2.0931 -0.322942
RightShoulder  0 2.42657e-020 1.07489e-018
RightArm  -96.6257 41.8839 -7.18372
RightForeArm  155.067 79.492 71.3724
RightHand  -11.6186 16.8306 -68.6838
LeftUpLeg  8.57735 10.8675 3.24616
LeftLeg  11.654 -7.20875 -1.00814
LeftFoot  31.2866 1.09437 -3.90681
LeftToes  -3.74065 1.28829e-006 1.15665e-007
110
root  -10.1308 50.1257 4.09559 3.67708 -34.0847 -3.18561
RightUpLeg  4.56918 2.02198 -1.13236
RightLeg  16.9944 13.7003 3.21087
RightFoot  40.845 -3.27137 9.14847
RightToes  -48.8255 -0.292538 -0.350197
Spine  -3.9362 -6.33853 -3.46398
Spine1  -7.14695 -13.5159 -7.06991
HEad  -34.6656 -36.9773 16.0234
LeftShoulder1  0 -2.42657e-020 -4.95415e-022
LeftArm  126.692 -60.0533 142.524
LeftForeArm  7.7 -41.1102 -8.8454
LeftHand  0.0542695 -2.7313 -2.65283
RightShoulder  0 2.42657e-020 1.07489e-018
RightArm  -98.2155 45.7146 -16.3826
RightForeArm  109.576 72.331 33.4614
RightHand  -5.29715 6.512 -77.9187
LeftUpLeg  9.21939 13.0822 2.93709
LeftLeg  11.6648 -7.6032 -1.06435
LeftFoot  33.2341 1.31811 -4.41473
LeftToes  -3.34753 1.28829e-006 1.15665e-007
